<svg xmlns="http://www.w3.org/2000/svg" xmlns:xlink="http://www.w3.org/1999/xlink" version="1.1" x="0px" y="0px" viewBox="0 0 425.2 531.5" enable-background="new 0 0 425.2 425.2" xml:space="preserve"><polygon points="327.875,211.932 327.875,216.663 317.956,214.295 "/><path d="M297.812,312.719c2.303,0.283,4.563,0.615,6.869,0.958l1.348,0.192c1.762,0.256,3.586,0.518,5.36,0.725  c2.096,0.242,4.342,0.476,6.573,0.548c2.233,0.092,4.287,0.028,6.4-0.196c2.382-0.225,4.758-0.617,6.562-0.932  c0.967-0.16,1.93-0.328,2.899-0.5c1.271-0.225,2.588-0.455,3.904-0.662c4.44-0.705,8.075-1.034,11.436-1.034  c0.979,0,1.946,0.03,2.879,0.087c2.408,0.139,4.846,0.508,7.244,1.096c0.127,0.029,0.252,0.065,0.378,0.096  c0.831-1.449,1.825-3.562,2.964-6.631c0.979-2.646,1.535-4.287,1.828-5.275h-33.759v-91.718h-1.831v91.718h-39.053  c0.447,1.739,1.96,7.274,3.946,11.139c0.164,0.011,0.333,0.021,0.509,0.035C295.556,312.463,296.716,312.58,297.812,312.719z"/><path d="M244.589,320.944c1.153-0.346,2.321-0.646,3.496-0.91c1.176-0.266,2.359-0.494,3.559-0.682  c1.199-0.18,2.405-0.329,3.664-0.355c0.634-0.014,1.256,0.018,1.871,0.064c0.613,0.048,1.225,0.105,1.825,0.182  c1.204,0.149,2.393,0.322,3.569,0.499c1.181,0.168,2.349,0.345,3.512,0.479c1.164,0.135,2.318,0.251,3.461,0.29  c1.146,0.047,2.254,0.016,3.396-0.105c1.139-0.107,2.285-0.285,3.448-0.488c1.163-0.192,2.341-0.418,3.538-0.605  c2.395-0.381,4.873-0.642,7.367-0.49c1.249,0.072,2.498,0.266,3.699,0.561c1.204,0.29,2.351,0.674,3.483,1.021  c1.131,0.352,2.263,0.66,3.423,0.894c1.16,0.231,2.344,0.398,3.542,0.519c-1.193,0.162-2.405,0.234-3.623,0.199  c-1.216-0.03-2.437-0.177-3.632-0.375c-1.197-0.199-2.362-0.434-3.509-0.586c-0.574-0.074-1.146-0.133-1.716-0.166  c-0.57-0.034-1.141-0.039-1.711-0.03c-0.568,0.009-1.148,0.044-1.721,0.094c-0.574,0.048-1.147,0.109-1.721,0.188  c-1.148,0.16-2.296,0.356-3.453,0.591l-3.514,0.705c-1.191,0.221-2.408,0.422-3.65,0.547c-1.237,0.12-2.525,0.152-3.77,0.078  c-1.246-0.076-2.469-0.218-3.676-0.412c-2.412-0.379-4.756-0.924-7.068-1.399c-1.154-0.233-2.307-0.454-3.428-0.559  c-1.135-0.094-2.319-0.098-3.5-0.076C249.382,320.659,246.992,320.809,244.589,320.944z"/><path d="M346.386,320.944c1.154-0.346,2.32-0.646,3.496-0.91c1.175-0.266,2.358-0.494,3.557-0.682c1.2-0.18,2.408-0.329,3.664-0.355  c0.637-0.014,1.258,0.018,1.873,0.064c0.615,0.048,1.223,0.105,1.825,0.182c1.204,0.149,2.391,0.322,3.569,0.499  c1.18,0.168,2.349,0.345,3.511,0.479c1.163,0.135,2.319,0.251,3.462,0.29c1.145,0.047,2.256,0.016,3.396-0.105  c1.137-0.107,2.285-0.285,3.447-0.488c1.165-0.192,2.34-0.418,3.539-0.605c2.394-0.381,4.873-0.642,7.367-0.49  c1.248,0.072,2.498,0.266,3.699,0.561c1.203,0.29,2.351,0.674,3.483,1.021c1.13,0.352,2.261,0.66,3.423,0.894  c1.159,0.231,2.342,0.398,3.541,0.519c-1.193,0.162-2.405,0.234-3.622,0.199c-1.216-0.03-2.438-0.177-3.634-0.375  c-1.194-0.199-2.361-0.434-3.51-0.586c-0.572-0.074-1.143-0.133-1.713-0.166c-0.571-0.034-1.143-0.039-1.713-0.03  c-0.566,0.009-1.146,0.044-1.72,0.094c-0.572,0.048-1.146,0.109-1.721,0.188c-1.146,0.16-2.296,0.356-3.452,0.591l-3.514,0.705  c-1.191,0.221-2.407,0.422-3.65,0.547c-1.238,0.12-2.526,0.152-3.771,0.078c-1.245-0.076-2.47-0.218-3.675-0.412  c-2.412-0.379-4.758-0.924-7.068-1.399c-1.154-0.233-2.307-0.454-3.428-0.559c-1.136-0.094-2.318-0.098-3.502-0.076  C351.177,320.659,348.789,320.809,346.386,320.944z"/><path d="M270.05,316.805c2.211-0.665,4.451-1.242,6.707-1.748c2.254-0.511,4.527-0.949,6.826-1.31  c2.303-0.345,4.619-0.631,7.029-0.681c1.221-0.027,2.414,0.034,3.594,0.123c1.18,0.091,2.346,0.203,3.501,0.35  c2.312,0.285,4.59,0.619,6.85,0.956c2.262,0.323,4.505,0.661,6.738,0.921c2.229,0.258,4.447,0.481,6.641,0.555  c2.196,0.09,4.325,0.029,6.515-0.201c2.182-0.207,4.387-0.549,6.615-0.939c2.234-0.369,4.492-0.8,6.791-1.16  c4.591-0.73,9.35-1.23,14.135-0.94c2.396,0.138,4.793,0.509,7.098,1.075c2.311,0.557,4.512,1.291,6.683,1.957  c2.171,0.677,4.342,1.269,6.569,1.718c2.225,0.445,4.494,0.764,6.793,0.995c-2.289,0.307-4.613,0.449-6.949,0.38  c-2.335-0.056-4.676-0.337-6.97-0.716c-2.296-0.384-4.532-0.834-6.733-1.126c-1.102-0.142-2.196-0.257-3.289-0.319  c-1.096-0.064-2.19-0.074-3.287-0.059c-1.087,0.02-2.199,0.087-3.298,0.18c-1.101,0.094-2.202,0.209-3.303,0.361  c-2.2,0.306-4.405,0.686-6.623,1.133l-6.745,1.352c-2.287,0.424-4.616,0.811-7,1.051c-2.377,0.23-4.848,0.293-7.234,0.152  c-2.391-0.15-4.74-0.42-7.055-0.791c-4.626-0.729-9.125-1.774-13.561-2.688c-2.216-0.45-4.427-0.869-6.576-1.069  c-2.178-0.18-4.45-0.188-6.719-0.146C279.245,316.254,274.66,316.545,270.05,316.805z"/><path d="M174.305,275.877l0.56-5.74c-7.722-0.469-13.339-0.812-13.339-0.812s-16.472,2.621-27.743,3.604  c-2.218,0.192-7.573,0.425-14.731,0.672l-0.312,2.276H174.305z"/><path d="M21.967,275.877h80.823c0.073-0.637,0.145-1.277,0.216-1.92C70.606,274.885,21.967,275.877,21.967,275.877z"/><path d="M296.138,275.877c0.73-2.742,1.547-5.539,2.439-8.353c-3.468,0.425-7.018,1.004-10.232,1.801  c-11.896,2.948-53.534,3.931-65.889,3.276c-6.607-0.352-22.638-1.264-36.123-2.037l-1.723,5.313H296.138z"/><path d="M231.883,364.543c0,0-36.002-8.57-43.102-12.58c-1.887-1.063-5.669-1.52-10.418-1.615l1.354-10.451l-1.979,1.105  c-0.041-1.344-0.071-2.754-0.093-4.21l1.197-9.233l-1.204,0.672c0.026-1.977,0.072-4.023,0.14-6.136l1.858-9.528l-1.454,0.698  c0.154-2.592,0.345-5.264,0.573-7.996l2.091-8.503l-1.334,0.565c0.241-2.261,0.512-4.56,0.813-6.89l2.391-7.25l-1.45,0.488  c0.328-2.177,0.683-4.379,1.064-6.604l0.395-1.199l1.751-5.313c-0.19-0.01-0.38-0.021-0.569-0.031l-0.407,0.137  c0.01-0.053,0.021-0.105,0.031-0.158c0.256-1.318,0.519-2.643,0.794-3.971l2.518-6.178l-1.242,0.328  c0.208-0.898,0.417-1.803,0.633-2.707l2.592-6.356l-1.069,0.284c0.525-2.008,1.078-4.025,1.657-6.045l2.18-4.506l-0.906,0.186  c0.365-1.207,0.742-2.414,1.127-3.621l2.498-5.164l-0.843,0.17c0.249-0.727,0.503-1.453,0.759-2.18l3.036-6.277l-0.792,0.16  c0.545-1.428,1.117-2.855,1.692-4.279c2.124,3.969,5.787,13.002,4.445,26.346c-1.853,18.428-5.597,23.232-5.597,23.232l5.697-4.428  c0,0-0.149,0.835,1.167-2.52c1.316-3.355,0.936-6.012,0.936-6.012s1.537,2.579,1.813,1.047c0.273-1.53,0.103-9.327,0.103-9.327  s1.188,6.112,1.684,4.333s0.745-2.74,0.749-4.176c0.008-1.438,0.092-2.286-0.588-3.271c-0.681-0.987-1.414-4.858-1.414-4.858  s3.16,3.881,2.971,2.551c-0.189-1.326-0.145-4.77-0.145-4.77l-2.835-5.691l2.418,2.454c0,0-0.306-3.075-0.886-4.62  c-0.58-1.543-3.687-6.518-3.687-6.518s3.681,4.695,1.981,0.361c-1.031-2.637-2.701-5.132-3.855-6.689  c4.32-0.412,11.905,0.461,15.66,10.469c4.643,12.371-4.072,29.521-4.072,29.521s7.004-5.745,10.335-11.13  c3.333-5.381,2.831-6.637,3.218-9.336c0.384-2.697-1.352-4.08-1.352-4.08s3.357,0.723,3.068-0.337  c-0.292-1.059-4.029-5.612-4.029-5.612s4.44,3.011,4.354,1.689c-0.088-1.324-0.16-2.029-0.795-2.889  c-0.636-0.857-0.893-1.41-2.308-1.637s-4.198-2.145-4.198-2.145s6.264,0.635,5.396-0.055c-0.866-0.69-2.342-2.767-2.342-2.767  l-6.607-1.891l4.562,0.181c0,0-1.813-1.671-3.337-2.283c-1.521-0.612-8.196-1.929-8.196-1.929s7.373,0.847,3-0.836  c-1.683-0.648-3.978-0.824-6.165-0.795c1.943-0.883,3.825-2.009,3.825-2.009s-0.653-0.042-3.161-0.021  c3.215-1.734,7.533-3.294,12.756-3.403c13.432-0.277,17.312,7.229,17.312,7.229s2.868-4.546-3.305-9.632  c-0.823-0.679,0.614,0.121-1.769-1.252c-2.379-1.372-4.418-0.688-4.418-0.688s2.104-2.112,0.984-2.334  c-1.123-0.223-7.002,0.606-7.002,0.606s4.723-1.958,3.439-2.434c-1.285-0.474-1.982-0.708-3.061-0.602  c-1.08,0.107-1.709,0.067-2.521,0.988c-0.816,0.923-3.806,2.137-3.806,2.137s3.259-4.229,2.239-3.89  c-1.02,0.341-3.602,0.555-3.602,0.555l-4.586,3.967l2.105-3.194c0,0-2.344,0.622-3.566,1.463c-1.223,0.841-5.297,5.09-5.297,5.09  s3.926-4.939,0.484-2.489c-1.897,1.35-3.833,3.601-5.192,5.353c0.405-2.512,0.694-5.468,0.294-7.486  c-0.824-4.171-1.392,2.261-1.392,2.261s-0.027-5.989-0.34-7.448c-0.313-1.46-1.611-3.483-1.611-3.483l-0.688,3.874l-0.604-6.106  c0,0-1.76-1.862-2.275-2.796c-0.514-0.934-1.078,4.503-1.078,4.503s-1.357-2.91-1.312-4.165c0.045-1.253-0.448-1.635-1.171-2.428  c-0.725-0.791-1.403-1.064-2.688-1.536c-1.284-0.473,0.834,4.154,0.834,4.154s-3.769-4.504-4.754-5.069s-0.913,2.465-0.913,2.465  s-1.03-1.87-3.754-2.361c-2.728-0.493,0.875-0.134-3.875-0.517c-4.75-0.381-10.372,6.092-10.372,6.092s10.422-2.893,21.125,5.404  c4.143,3.211,6.494,7.081,7.826,10.621l-1.73-0.938l0.734,3.311c-2.425-3.09-5.302-5.281-12.04-6.262  c-5.736-0.834,2.775,3.519,2.775,3.519s-7.938-2.676-9.915-3.125c-1.977-0.449-4.927,0.548-4.927,0.548l4.922,2.699l-8.12-2.581  c0,0-2.814,0.774-4.148,0.796c-1.333,0.024,5.664,3.414,5.664,3.414s-4.101-0.171-5.733-0.87c-1.629-0.698-2.236-0.407-3.427-0.104  c-1.19,0.306-1.695,0.835-2.588,1.861c-0.894,1.025,5.617,1.338,5.617,1.338s-6.703,1.385-7.653,2.067  c-0.951,0.682,3.03,2.188,3.03,2.188s-2.668,0.046-3.897,2.488c-1.229,2.442-2.518,3.154-2.266,9.626  c0.253,6.472,0.515,13.427,0.515,13.427s4.764-16.795,17.687-23.545c11.463-5.989,19.246-3.329,23.199-0.849  c-2.757-0.413-6.155-0.701-8.447-0.135c-4.448,1.102,2.379,1.4,2.379,1.4s-5.666,1.605-7.222,2.018  c-1.556,0.411-3.729,1.919-3.729,1.919l4.106,0.557l-6.499,0.956c0,0-2.008,2.003-3.009,2.606c-1.001,0.604,4.768,0.947,4.768,0.947  s-3.115,1.617-4.448,1.629c-1.331,0.014-1.745,0.566-2.599,1.393c-0.854,0.824-1.155,1.573-1.679,2.992  c-0.522,1.417,4.43-1.109,4.43-1.109s-4.851,4.311-5.466,5.407c-0.616,1.099,2.604,0.87,2.604,0.87s-2.004,1.209-2.573,4.189  c-0.144,0.754-0.235,1.039-0.292,1.107c0.021,0.244,0.042,0.642,0.06,1.275c0.23,7.958,6.447,7.836,6.447,7.836  s-4.088-6.468,4.909-18.492c5.789-7.735,13.935-10,19.011-10.633l0.177,0.135c-0.718,1.57-1.421,3.146-2.102,4.725l-0.496-0.805  l-2.252,7.439c-0.169,0.423-0.336,0.846-0.503,1.271l-0.289-0.47l-1.879,6.205c-0.327,0.896-0.649,1.793-0.965,2.688l-0.619-0.782  l-0.942,5.318c-0.643,1.926-1.262,3.849-1.856,5.767l-0.645-0.816l-1.308,7.374c-0.187,0.656-0.371,1.312-0.555,1.965l-0.595-0.756  l-1.636,9.215c-0.206,0.824-0.407,1.646-0.605,2.466l-0.799-0.877l-0.102,0.976l-0.601,5.74l-0.131,1.249  c-0.376,1.716-0.734,3.419-1.079,5.108l-0.835-0.882l-0.791,9.356c-0.336,1.863-0.655,3.709-0.956,5.529l-1.085-1.063l-0.536,11.696  l0.012-0.049c-0.251,1.804-0.485,3.582-0.706,5.322l-0.958-0.852l0.033,8.686c-0.286,2.604-0.54,5.107-0.767,7.505l-0.988-0.879  l0.045,11.71l0.023-0.119c-0.061,0.791-0.119,1.561-0.176,2.311l-1.448-1.138l0.724,10.878c-0.01,0.132-0.02,0.25-0.031,0.377  c-11.532,0.617-24.315,1.976-30.777,2.038c-1.612,0.017-3.754-0.191-6.264-0.563c-5.063-2.751-10.395-6.898-14.094-9.413  c-1.078-0.732-2.695-1.229-4.597-1.559l3.417-13.132l-2.514,1.343c0.139-1.18,0.281-2.385,0.424-3.627v0.188l3.557-18.114  l-1.747,1.078c0.373-3.775,0.738-7.727,1.084-11.838l2.639-13.436l-1.691,1.039c0.188-2.754,0.365-5.573,0.525-8.441l0.004,0.08  l0.058-0.391l0.334-2.276l2.29-15.594l-1.945,1.333c0.091-2.903,0.162-5.852,0.214-8.834l1.599-14.715l-1.515,1.127  c-0.016-2.718-0.044-5.456-0.098-8.221l1.123-12.57l-1.462,1.127c-0.051-1.326-0.109-2.654-0.172-3.99l0.291-14.739l-1.118,0.999  c-0.082-1.066-0.164-2.13-0.248-3.201l0.235-11.794l-1.211,1.078c-0.322-3.14-0.678-6.296-1.069-9.462l0.17-8.505l-1.162,1.033  c-0.208-1.476-0.425-2.96-0.648-4.442l-0.971-10.145l-0.574,0.642c-0.123-0.706-0.247-1.408-0.376-2.113l-1.164-12.166l-0.982,1.101  c-0.55-2.64-1.137-5.282-1.748-7.921l0.308-0.157c7.43,2.445,18.981,8.303,25.365,21.953c9.919,21.209,1.857,30.039,1.857,30.039  s9.294,1.986,12.008-10.263c0.218-0.979,0.368-1.586,0.473-1.959c-0.066-0.12-0.12-0.59-0.111-1.8  c0.035-4.779-2.613-7.229-2.613-7.229s4.765,1.283,4.167-0.593c-0.597-1.877-6.591-9.952-6.591-9.952s6.68,5.343,6.318,3  c-0.364-2.348-0.594-3.596-1.629-5.118c-1.035-1.527-1.491-2.5-3.485-2.905c-1.996-0.404-6.191-3.807-6.191-3.807  s8.763,1.135,7.44-0.088c-1.322-1.225-3.741-4.906-3.741-4.906l-9.467-3.355l6.328,0.325c0,0-2.812-2.962-5.023-4.048  c-2.213-1.088-10.238-5.21-10.238-5.21s10.333,1.509,3.987-1.479c-3.271-1.541-8.458-2.074-12.718-2.232  c6.672-2.699,19.144-4.567,34.564,8.013c17.382,14.182,19.528,41.557,19.528,41.557s2.467-10.69,4.775-20.635  c2.306-9.943,0.585-11.419-0.534-15.556c-1.115-4.134-5.107-4.976-5.107-4.976s6.423-1.18,5.201-2.511  c-1.221-1.331-10.87-5.411-10.87-5.411s9.864,1.396,8.828-0.448c-1.034-1.846-1.634-2.812-3.329-3.628  c-1.699-0.815-2.522-1.439-5.176-0.829c-2.659,0.609-8.862-0.309-8.862-0.309s11.509-3.226,9.516-3.646  c-1.994-0.421-5.989-2.432-5.989-2.432l-12.956,1.648l8.191-2.755c0,0-4.129-2.397-7.23-2.272  c-3.102,0.126-15.811,1.973-15.811,1.973s14.07-4.279,5.213-4.644c-10.405-0.429-15.377,2.132-19.937,6.214l2.09-4.914l-2.878,0.953  c3.054-5.094,7.735-10.404,14.91-14.178c18.534-9.752,33.313-2.265,33.313-2.265s-6.508-11.646-13.751-12.427  c-7.243-0.78-1.729-0.295-5.97-0.319c-4.235-0.026-6.337,2.57-6.337,2.57s1.012-4.668-0.636-4.079  c-1.647,0.588-8.646,6.473-8.646,6.473s4.559-6.551,2.489-6.189c-2.069,0.359-3.169,0.588-4.492,1.603  c-1.322,1.016-2.176,1.465-2.481,3.418c-0.304,1.956-3.209,6.069-3.209,6.069s0.773-8.582-0.276-7.286  c-1.051,1.3-4.248,3.672-4.248,3.672l-2.725,9.276l0.12-6.195c0,0-2.551,2.756-3.456,4.926c-0.904,2.167-2.729,11.431-2.729,11.431  s1.063-10.119-1.417-3.9c-1.201,3.008-1.646,7.666-1.789,11.672c-1.518-3.104-3.752-7.148-6.196-9.784  c-4.437-4.788-0.015,3.992-0.015,3.992s-4.85-7.753-6.433-9.41c-1.585-1.656-4.918-3.293-4.918-3.293l2.207,5.553l-5.699-7.466  c0,0-3.813-1.077-5.241-1.899c-1.427-0.821,2.201,6.668,2.201,6.668s-4.124-2.744-5.071-4.409c-0.947-1.661-1.903-1.781-3.491-2.257  c-1.589-0.475-2.703-0.314-4.772,0.05c-2.069,0.364,4.436,4.758,4.436,4.758s-8.577-2.979-10.327-2.959  c-1.752,0.018,0.781,3.895,0.781,3.895s-2.857-1.643-6.837-0.208c-3.983,1.436-1.589,0.613-3.027,1.426  c-10.78,6.09-7.828,13.956-7.828,13.956s8.057-10.498,28.134-6.188c7.806,1.677,13.819,5.339,18.13,8.951  c-3.758-0.757-4.752-0.879-4.752-0.879s2.487,2.285,5.143,4.213c-3.274-0.676-6.771-1.068-9.489-0.55  c-7.065,1.341,4.253,2.162,4.253,2.162s-10.411,0.111-12.877,0.618c-2.465,0.509-5.685,2.57-5.685,2.57l6.896,1.038l-10.479,1.019  c0,0-2.832,2.786-4.339,3.605c-1.504,0.819,8.085,1.643,8.085,1.643s-4.748,2.166-6.941,2.108c-2.191-0.058-2.741,0.722-3.95,1.868  c-1.208,1.147-1.528,2.217-2.053,4.241c-0.524,2.022,7.035-1.357,7.035-1.357s-6.963,5.97-7.716,7.525  c-0.753,1.557,4.5,1.407,4.5,1.407s-3.016,1.639-3.24,5.926c-0.228,4.289-1.351,6.087,2.044,15.383  c3.396,9.294,12.196,20.211,12.196,20.211s-7.968-29.063,2.684-46.872c8.616-14.408,20.261-13.567,26.622-11.681  c-2.195,2.077-5.446,5.459-7.779,9.24c-3.841,6.22,3.082,0.015,3.082,0.015s-6.145,6.801-7.475,9.024  c-1.331,2.221-2.705,6.893-2.705,6.893l4.358-3.099l-5.95,7.993c0,0-0.956,5.34-1.638,7.342c-0.681,2.001,5.218-3.092,5.218-3.092  s-2.254,5.779-3.569,7.11c-1.313,1.33-1.438,2.667-1.857,4.893c-0.42,2.226-0.333,3.785-0.12,6.681  c0.212,2.898,3.818-6.218,3.818-6.218s-2.581,12.017-2.626,14.468c-0.043,2.45,3.033-1.1,3.033-1.1s-1.362,4.005-0.387,9.574  c0.977,5.577,1,4.24,1,4.24l7.23,8.5c0,0-4.186-8.521-1.477-37.581c1.961-21.043,10.15-33.967,14.521-39.497  c0.438,2.373,0.872,4.745,1.265,7.115l-1.141-0.479l2.687,10.595c0.168,1.198,0.333,2.397,0.49,3.592l-1.215-0.506l2.211,8.714  c0.218,1.982,0.423,3.958,0.614,5.93l-1.305-0.546l1.929,7.604c0.268,3.296,0.496,6.577,0.686,9.835l-1.521-0.748l1.996,10.589  c0.056,1.465,0.102,2.92,0.145,4.373l-1.767-0.867l1.939,10.289c0.018,2.223,0.02,4.434,0.007,6.632l-1.483-0.86l1.333,11.115  c-0.09,3.552-0.215,7.063-0.373,10.53l-2.028-1.179l1.427,11.915c-0.242,3.695-0.521,7.33-0.831,10.898l-1.834-1.26l0.604,13.768  c-0.09,0.824-0.189,1.625-0.282,2.441c-0.073,0.643-0.147,1.283-0.222,1.92c-0.327,2.773-0.663,5.515-1.019,8.18l-1.973-1.497  l-0.05,15.283c-0.527,3.292-1.068,6.474-1.618,9.539l-1.606-1.387l-0.955,14.639c-0.467,2.247-0.934,4.421-1.394,6.488l-2.643-2.281  l-1.042,15.96c-1.206,0.043-2.026,0.053-2.264-0.025c-0.464-0.15-1.903,0.646-3.572,1.822c-5.108-1.137-9.049-1.879-10.786-1.818  c-6.857,0.238-5.143,10.049-24.858,11.184c-19.715,1.135-30.001,12.58-30.001,12.58v8.234h383.166v-8.234H231.883z"/><path d="M404.183,275.877c0,0-16.2-2.211-29.215-2.375c-5.605-0.07-15.945-1.402-25.901-2.895c0.744,1.758,1.507,3.514,2.28,5.27  H404.183z"/><path d="M301.093,267.525c-0.914,2.813-1.751,5.61-2.5,8.353c-1.885,6.898-3.213,13.447-3.768,18.996l33.105,4.225v-23.221v-8.129  v-48.424C318.166,226.287,307.662,247.315,301.093,267.525z"/><path d="M348.922,275.877c-0.81-1.756-1.606-3.512-2.386-5.27c-6.504-14.678-11.877-29.436-14.851-43.695v41.439v7.525v23.221  l26.752-3.755C355.142,288.919,351.937,282.413,348.922,275.877z"/><text x="0" y="440.2" fill="#000000" font-size="5px" font-weight="bold" font-family="'Helvetica Neue', Helvetica, Arial-Unicode, Arial, Sans-serif">Created by John Burraco</text><text x="0" y="445.2" fill="#000000" font-size="5px" font-weight="bold" font-family="'Helvetica Neue', Helvetica, Arial-Unicode, Arial, Sans-serif">from the Noun Project</text></svg>